<?xml version="1.0" encoding="utf-8"?>
<!-- Generator: Adobe Illustrator 23.0.1, SVG Export Plug-In . SVG Version: 6.00 Build 0)  -->
<svg version="1.1" id="Layer_1" xmlns="http://www.w3.org/2000/svg" xmlns:xlink="http://www.w3.org/1999/xlink" x="0px" y="0px"
	 viewBox="0 0 41 45" style="enable-background:new 0 0 41 45;" xml:space="preserve">
<g transform="translate(0,-952.36218)">
	<path d="M20.5,952.4c1.3,0,2.6,0.5,3.7,1.4c0.5-0.2,1-0.4,1.5-0.4c2,0,3.7,1.7,3.7,3.7c0,1-0.4,1.9-1.1,2.6c0,0,0,0,0,0
		c0.1,0.3,0.3,0.7,0.4,1c1.4-0.2,2.7-0.4,3.9-0.3c3.3,0,6.1,1,7.4,3.3c0.8,1.4,0.9,3.1,0.5,4.8c-0.4,1.7-1.3,3.5-2.6,5.2
		c-0.3,0.4-0.6,0.8-0.9,1.2c0.3,0.4,0.7,0.8,0.9,1.2c1.3,1.8,2.2,3.5,2.6,5.2c0.4,1.7,0.3,3.4-0.5,4.8c-0.2,0.4-0.5,0.7-0.8,1
		c0.1,0.3,0.1,0.6,0.1,0.9c0,2-1.7,3.7-3.7,3.7c-1.5,0-2.8-0.9-3.4-2.2c-1.1,0-2.4-0.1-3.6-0.3c-0.2,0.5-0.4,0.9-0.6,1.4
		c-0.9,2-2,3.7-3.2,4.9c-1.3,1.2-2.8,2-4.4,2s-3.1-0.8-4.4-2c-1.3-1.2-2.3-2.9-3.2-4.9c-0.2-0.4-0.4-0.9-0.6-1.4
		c-0.7,0.1-1.4,0.2-2,0.3c-0.5,1.3-1.9,2.3-3.4,2.3c-1.9,0-3.5-1.5-3.6-3.4c-0.9-0.5-1.7-1.2-2.2-2.1c-0.8-1.4-0.9-3.1-0.5-4.8
		c0.4-1.7,1.3-3.5,2.6-5.2c0.3-0.4,0.6-0.8,0.9-1.2c-0.3-0.4-0.7-0.8-0.9-1.2c-1.3-1.8-2.2-3.5-2.6-5.2c-0.4-1.7-0.3-3.4,0.5-4.8
		c1.4-2.5,4.5-3.4,8.2-3.3c1,0,2,0.2,3.1,0.3c0.2-0.5,0.4-1,0.6-1.4c0.9-2,2-3.7,3.2-4.9C17.4,953.1,18.9,952.4,20.5,952.4z
		 M20.5,954.5c-1,0-2,0.4-2.9,1.4c-1,1-2,2.4-2.8,4.3c-0.1,0.3-0.3,0.7-0.4,1c2,0.5,4,1.2,6.1,2.1c2.1-0.9,4.1-1.6,6.1-2.1
		c-0.1-0.2-0.1-0.3-0.2-0.4c-0.2,0-0.5,0.1-0.7,0.1c-2,0-3.7-1.7-3.7-3.7c0-0.7,0.2-1.3,0.5-1.9C21.9,954.7,21.2,954.5,20.5,954.5z
		 M25.7,955.5c-0.9,0-1.6,0.7-1.6,1.6s0.7,1.6,1.6,1.6c0.9,0,1.6-0.7,1.6-1.6S26.6,955.5,25.7,955.5z M32.6,962.4
		c-1,0-2.1,0.1-3.2,0.3c0.6,1.9,1,4,1.3,6.3c1.8,1.4,3.5,2.8,4.9,4.3c0.2-0.3,0.4-0.6,0.7-0.9c1.2-1.6,2-3.2,2.3-4.5
		c0.3-1.3,0.2-2.4-0.3-3.2C37.4,963.3,35.5,962.5,32.6,962.4z M9.1,962.4c-3.3-0.1-5.4,0.7-6.3,2.2c-0.5,0.8-0.6,1.9-0.3,3.2
		c0.3,1.3,1.1,2.9,2.3,4.5c0.2,0.3,0.4,0.6,0.7,0.9c1.4-1.5,3-2.9,4.8-4.3c0.3-2.3,0.7-4.4,1.3-6.3C10.8,962.6,9.9,962.5,9.1,962.4z
		 M13.7,963.1c-0.4,1.3-0.7,2.7-1,4.3c0.8-0.5,1.7-1.1,2.5-1.6c0.9-0.5,1.7-1,2.6-1.4C16.4,963.9,15,963.4,13.7,963.1z M27.3,963.1
		c-1.3,0.3-2.7,0.7-4.2,1.3c0.9,0.4,1.7,0.9,2.6,1.4c0.9,0.5,1.7,1,2.5,1.6C28,965.9,27.7,964.4,27.3,963.1z M20.5,965.5
		c-1.4,0.6-2.8,1.3-4.2,2.1c-1.4,0.8-2.7,1.7-4,2.6c-0.2,1.5-0.2,3.1-0.2,4.7c0,1.6,0.1,3.2,0.2,4.7c1.2,0.9,2.6,1.7,4,2.6
		c1.4,0.8,2.8,1.5,4.2,2.2c1.4-0.6,2.8-1.3,4.2-2.2c1.4-0.8,2.7-1.7,4-2.6c0.2-1.5,0.2-3.1,0.2-4.7c0-1.6-0.1-3.2-0.2-4.7
		c-1.2-0.9-2.6-1.8-4-2.6C23.3,966.8,21.9,966.1,20.5,965.5L20.5,965.5z M20.5,971.2c2,0,3.7,1.7,3.7,3.7s-1.7,3.7-3.7,3.7
		s-3.7-1.7-3.7-3.7S18.5,971.2,20.5,971.2z M30.9,971.9c0.1,1,0.1,2,0.1,3c0,1,0,2-0.1,3c1.2-1,2.2-2,3.2-3
		C33.1,973.9,32.1,972.9,30.9,971.9z M10.1,971.9c-1.2,1-2.3,2-3.2,3c0.9,1,2,2,3.2,3c-0.1-1-0.1-2-0.1-3
		C10,973.9,10.1,972.9,10.1,971.9z M20.5,973.3c-0.9,0-1.6,0.7-1.6,1.6s0.7,1.6,1.6,1.6c0.9,0,1.6-0.7,1.6-1.6
		S21.4,973.3,20.5,973.3z M35.4,976.4c-1.4,1.4-3,2.9-4.8,4.3c-0.3,2.3-0.7,4.4-1.3,6.3c1,0.2,1.9,0.2,2.7,0.3c0.3-1.7,1.8-3,3.6-3
		c0.9,0,1.8,0.4,2.4,0.9c0,0,0.1-0.1,0.1-0.1c0.5-0.8,0.6-1.9,0.3-3.3c-0.3-1.3-1.1-2.9-2.3-4.5C35.9,977,35.7,976.7,35.4,976.4z
		 M5.6,976.4c-0.2,0.3-0.5,0.6-0.7,0.9c-1.2,1.6-2,3.2-2.3,4.5c-0.3,1.3-0.2,2.4,0.3,3.3c0.2,0.4,0.5,0.7,0.9,1
		c0.6-1.1,1.8-1.8,3.1-1.8c1.8,0,3.2,1.3,3.6,2.9c0.4,0,0.8-0.1,1.2-0.2c-0.6-1.9-1-4.1-1.3-6.3C8.6,979.3,6.9,977.9,5.6,976.4z
		 M28.3,982.4c-0.8,0.5-1.7,1.1-2.5,1.6c-0.9,0.5-1.7,1-2.6,1.4c1.4,0.5,2.8,1,4.2,1.3C27.7,985.3,28,983.9,28.3,982.4L28.3,982.4z
		 M12.7,982.4c0.3,1.5,0.6,3,1,4.3c1.3-0.3,2.7-0.8,4.2-1.3c-0.9-0.4-1.7-0.9-2.6-1.4C14.4,983.4,13.6,982.9,12.7,982.4z
		 M35.7,986.4c-0.9,0-1.6,0.7-1.6,1.6c0,0.9,0.7,1.6,1.6,1.6s1.6-0.7,1.6-1.6C37.2,987.1,36.6,986.4,35.7,986.4z M6.9,986.4
		c-0.9,0-1.6,0.7-1.6,1.6c0,0.9,0.7,1.6,1.6,1.6s1.6-0.7,1.6-1.6C8.5,987.1,7.8,986.4,6.9,986.4z M20.5,986.6
		c-2.1,0.9-4.2,1.6-6.1,2.1c0.1,0.3,0.3,0.7,0.4,1c0.8,1.9,1.8,3.3,2.8,4.3c1,1,2,1.4,2.9,1.4s2-0.5,2.9-1.4s2-2.4,2.8-4.3
		c0.1-0.3,0.3-0.7,0.4-1C24.7,988.1,22.6,987.4,20.5,986.6z"/>
</g>
</svg>
