<?xml version="1.0" encoding="utf-8"?>
<!-- Generator: Adobe Illustrator 23.0.1, SVG Export Plug-In . SVG Version: 6.00 Build 0)  -->
<svg version="1.1" id="Layer_1" xmlns="http://www.w3.org/2000/svg" xmlns:xlink="http://www.w3.org/1999/xlink" x="0px" y="0px"
	 viewBox="0 0 45 46" style="enable-background:new 0 0 45 46;" xml:space="preserve">
<g>
	<g>
		<g>
			<path d="M15.9,36.2c-3.6,0-6.6-3-6.6-6.6s3-6.6,6.6-6.6s6.6,3,6.6,6.6S19.6,36.2,15.9,36.2z M15.9,24.9c-2.6,0-4.7,2.1-4.7,4.7
				s2.1,4.7,4.7,4.7s4.7-2.1,4.7-4.7S18.5,24.9,15.9,24.9z"/>
		</g>
		<g>
			<path d="M19.7,45.7h-7.6c-0.5,0-0.9-0.4-0.9-0.9v-2.8c-1.3-0.5-2.5-1.2-3.6-2.1l-2.4,1.4c-0.5,0.3-1,0.1-1.3-0.3l-3.8-6.5
				C0,34.1,0,33.9,0,33.6s0.2-0.4,0.4-0.6l2.4-1.4c-0.2-1.4-0.2-2.8,0-4.2l-2.4-1.4c-0.5-0.3-0.6-0.8-0.3-1.3l3.8-6.5
				c0.1-0.2,0.3-0.4,0.6-0.4c0.2-0.1,0.5,0,0.7,0.1l2.4,1.4c1.1-0.9,2.3-1.6,3.6-2.1v-2.8c0-0.5,0.4-0.9,0.9-0.9h7.6
				c0.5,0,0.9,0.4,0.9,0.9v2.8c1.3,0.5,2.5,1.2,3.6,2.1l2.4-1.4c0.5-0.3,1-0.1,1.3,0.3l3.8,6.5c0.3,0.5,0.1,1-0.3,1.3L29,27.5
				c0.2,1.4,0.2,2.8,0,4.2l2.4,1.4c0.2,0.1,0.4,0.3,0.4,0.6c0.1,0.2,0,0.5-0.1,0.7l-3.8,6.5c-0.1,0.2-0.3,0.4-0.6,0.4
				c-0.2,0.1-0.5,0-0.7-0.1l-2.4-1.4c-1.1,0.9-2.3,1.6-3.6,2.1v2.8C20.6,45.2,20.2,45.7,19.7,45.7z M13.1,43.8h5.7v-2.5
				c0-0.4,0.3-0.8,0.7-0.9c1.5-0.5,2.9-1.3,4.1-2.4c0.3-0.3,0.8-0.3,1.1-0.1l2.2,1.2l2.8-4.9L27.4,33c-0.4-0.2-0.5-0.6-0.5-1
				c0.3-1.6,0.3-3.2,0-4.7c-0.1-0.4,0.1-0.8,0.5-1l2.2-1.2l-2.8-4.9l-2.2,1.2c-0.4,0.2-0.8,0.2-1.1-0.1c-1.2-1.1-2.6-1.9-4.1-2.4
				c-0.4-0.1-0.7-0.5-0.7-0.9v-2.5h-5.7v2.5c0,0.4-0.3,0.8-0.7,0.9c-1.5,0.5-2.9,1.3-4.1,2.4c-0.3,0.3-0.8,0.3-1.1,0.1l-2.2-1.2
				L2.2,25l2.2,1.2c0.4,0.2,0.5,0.6,0.5,1c-0.3,1.6-0.3,3.2,0,4.7c0.1,0.4-0.1,0.8-0.5,1l-2.2,1.2l2.8,4.9l2.2-1.2
				C7.6,37.7,8,37.7,8.3,38c1.2,1.1,2.6,1.9,4.1,2.4c0.4,0.1,0.7,0.5,0.7,0.9V43.8z"/>
		</g>
	</g>
	<g>
		<g>
			<path d="M35.8,13.6c-2.1,0-3.8-1.7-3.8-3.8S33.7,6,35.8,6c2.1,0,3.8,1.7,3.8,3.8S37.8,13.6,35.8,13.6z M35.8,7.9
				c-1,0-1.9,0.8-1.9,1.9s0.8,1.9,1.9,1.9s1.9-0.8,1.9-1.9S36.8,7.9,35.8,7.9z"/>
		</g>
		<g>
			<path d="M37.6,19.2h-3.8c-0.5,0-0.9-0.4-0.9-0.9v-1.5c-0.6-0.3-1.2-0.6-1.8-1l-1.3,0.8c-0.2,0.1-0.5,0.2-0.7,0.1
				c-0.2-0.1-0.4-0.2-0.6-0.4l-1.9-3.3c-0.3-0.5-0.1-1,0.3-1.3l1.3-0.8c-0.1-0.7-0.1-1.4,0-2.1L27,8c-0.2-0.1-0.4-0.3-0.4-0.6
				c-0.1-0.2,0-0.5,0.1-0.7l1.9-3.3C28.6,3.2,28.9,3,29.1,3c0.2-0.1,0.5,0,0.7,0.1l1.3,0.8c0.5-0.4,1.2-0.8,1.8-1V1.3
				c0-0.5,0.4-0.9,0.9-0.9h3.8c0.5,0,0.9,0.4,0.9,0.9v1.5c0.6,0.3,1.2,0.6,1.8,1l1.3-0.8c0.2-0.1,0.5-0.2,0.7-0.1s0.4,0.2,0.6,0.4
				l1.9,3.3c0.3,0.5,0.1,1-0.3,1.3l-1.3,0.8c0.1,0.7,0.1,1.4,0,2.1l1.3,0.8c0.5,0.3,0.6,0.8,0.3,1.3L43,16.1
				c-0.1,0.2-0.3,0.4-0.6,0.4c-0.2,0.1-0.5,0-0.7-0.1l-1.3-0.8c-0.5,0.4-1.2,0.8-1.8,1v1.5C38.6,18.8,38.2,19.2,37.6,19.2z
				 M34.8,17.3h1.9v-1.2c0-0.4,0.3-0.8,0.7-0.9c0.8-0.3,1.6-0.7,2.3-1.3c0.3-0.3,0.8-0.3,1.1-0.1l1.1,0.6l0.9-1.6l-1.1-0.6
				c-0.4-0.2-0.5-0.6-0.4-1c0.2-0.9,0.2-1.7,0-2.6c-0.1-0.4,0.1-0.8,0.4-1l1.1-0.6l-0.9-1.6l-1.1,0.6C40.4,6,39.9,6,39.6,5.7
				c-0.7-0.6-1.4-1.1-2.2-1.3c-0.4-0.1-0.7-0.5-0.7-0.9V2.2h-1.9v1.2c0,0.4-0.3,0.8-0.7,0.9c-0.8,0.3-1.6,0.7-2.3,1.3
				C31.6,6,31.1,6,30.8,5.8l-1.1-0.6l-0.9,1.6l1.1,0.6c0.4,0.2,0.5,0.6,0.4,1c-0.2,0.9-0.2,1.7,0,2.6c0.1,0.4-0.1,0.8-0.4,1
				l-1.1,0.6l0.9,1.6l1.1-0.6c0.4-0.2,0.8-0.2,1.1,0.1c0.7,0.6,1.4,1.1,2.3,1.3c0.4,0.1,0.7,0.5,0.7,0.9V17.3z"/>
		</g>
	</g>
</g>
</svg>
