<?xml version="1.0" encoding="utf-8"?>
<!-- Generator: Adobe Illustrator 23.0.1, SVG Export Plug-In . SVG Version: 6.00 Build 0)  -->
<svg version="1.1" id="Layer_1" xmlns="http://www.w3.org/2000/svg" xmlns:xlink="http://www.w3.org/1999/xlink" x="0px" y="0px"
	 viewBox="0 0 45 45" style="enable-background:new 0 0 45 45;" xml:space="preserve">
<g>
	<path d="M44.1,43.1h-0.9V15.9c0-0.5-0.4-0.9-0.9-0.9h-5.6c-0.5,0-0.9,0.4-0.9,0.9v27.2h-3.8V29.1c0-0.5-0.4-0.9-0.9-0.9h-5.6
		c-0.5,0-0.9,0.4-0.9,0.9v14.1h-3.8V25.3c0-0.5-0.4-0.9-0.9-0.9h-5.6c-0.5,0-0.9,0.4-0.9,0.9v17.8H9.4v-8.4c0-0.5-0.4-0.9-0.9-0.9
		H2.8c-0.5,0-0.9,0.4-0.9,0.9v8.4H0.9c-0.5,0-0.9,0.4-0.9,0.9S0.4,45,0.9,45h1.9h5.6h5.6h5.6h5.6h5.6h5.6h5.6h1.9
		c0.5,0,0.9-0.4,0.9-0.9S44.6,43.1,44.1,43.1z M3.8,43.1v-7.5h3.8v7.5H3.8z M15,43.1V26.2h3.8v16.9H15z M26.2,43.1V30H30v13.1H26.2z
		 M37.5,43.1V16.9h3.8v26.2H37.5z"/>
	<path d="M5.6,24.4c1.6,0,2.8-1.3,2.8-2.8c0-0.3-0.1-0.7-0.2-1l7.2-6c0.4,0.2,0.9,0.4,1.4,0.4c0.9,0,1.7-0.4,2.2-1.1l6.2,2.1
		c0,1.5,1.3,2.8,2.8,2.8c1.6,0,2.8-1.3,2.8-2.8c0-0.5-0.1-1-0.4-1.4l7.8-9.1c0.3,0.1,0.7,0.2,1,0.2c1.6,0,2.8-1.3,2.8-2.8
		S40.9,0,39.4,0s-2.8,1.3-2.8,2.8c0,0.5,0.1,1,0.4,1.4l-7.8,9.1c-0.3-0.1-0.7-0.2-1-0.2c-0.9,0-1.7,0.4-2.2,1.1l-6.2-2.1
		c0-1.5-1.3-2.8-2.8-2.8c-1.6,0-2.8,1.3-2.8,2.8c0,0.3,0.1,0.7,0.2,1l-7.2,6c-0.4-0.2-0.9-0.4-1.4-0.4c-1.6,0-2.8,1.3-2.8,2.8
		S4.1,24.4,5.6,24.4z M39.4,1.9c0.5,0,0.9,0.4,0.9,0.9s-0.4,0.9-0.9,0.9s-0.9-0.4-0.9-0.9S38.9,1.9,39.4,1.9z M28.1,15
		c0.5,0,0.9,0.4,0.9,0.9s-0.4,0.9-0.9,0.9s-0.9-0.4-0.9-0.9S27.6,15,28.1,15z M16.9,11.2c0.5,0,0.9,0.4,0.9,0.9s-0.4,0.9-0.9,0.9
		s-0.9-0.4-0.9-0.9S16.4,11.2,16.9,11.2z M5.6,20.6c0.5,0,0.9,0.4,0.9,0.9s-0.4,0.9-0.9,0.9s-0.9-0.4-0.9-0.9S5.1,20.6,5.6,20.6z"/>
</g>
</svg>
