<?xml version="1.0" encoding="utf-8"?>
<!-- Generator: Adobe Illustrator 23.0.1, SVG Export Plug-In . SVG Version: 6.00 Build 0)  -->
<svg version="1.1" id="Layer_1" xmlns="http://www.w3.org/2000/svg" xmlns:xlink="http://www.w3.org/1999/xlink" x="0px" y="0px"
	 viewBox="0 0 45 39" style="enable-background:new 0 0 45 39;" xml:space="preserve">
<g>
	<path d="M22.5,18.1c3.8,0,6.6-1.6,6.6-3.8c0-2.2-2.8-3.8-6.6-3.8s-6.6,1.6-6.6,3.8C15.9,16.5,18.7,18.1,22.5,18.1z M22.5,16.2
		c-3,0-4.6-1.2-4.6-1.8s1.6-1.8,4.6-1.8c3,0,4.6,1.2,4.6,1.8S25.5,16.2,22.5,16.2z"/>
	<path d="M45,13.3c0-0.1,0-0.2-0.1-0.3l-0.1-0.1c0-0.1-0.1-0.1-0.2-0.2c0,0-0.1-0.1-0.1-0.1l-3-1.3c0.4-0.5,0.6-1.1,0.6-1.6
		c0-2.2-2.8-3.8-6.6-3.8c-1.6,0-3.2,0.3-4.4,0.9l-2.7-1.2c0.4-0.5,0.6-1,0.6-1.6c0-2.2-2.8-3.8-6.6-3.8s-6.6,1.6-6.6,3.8
		c0,0.5,0.2,1.1,0.6,1.6l-2.2,1c-1.1-0.5-2.5-0.7-3.9-0.7c-3.8,0-6.6,1.6-6.6,3.8c0,0.5,0.1,0.9,0.4,1.3l-3.6,1.5c0,0,0,0,0,0
		l-0.2,0.1c-0.1,0.1-0.1,0.1-0.2,0.2L0.1,13c0,0.1-0.1,0.2-0.1,0.3l0,15.1c0,0.4,0.2,0.7,0.6,0.9l20.6,9.4c0.1,0.1,0.3,0.1,0.4,0.1
		c0.1,0,0.3,0,0.4-0.1l22.5-9.4c0.4-0.2,0.6-0.5,0.6-0.9v-15L45,13.3z M39.4,10.6c-0.1,0-0.2,0.1-0.3,0.2c-0.9,0.5-2.2,0.7-3.5,0.7
		c-3,0-4.6-1.2-4.6-1.8s1.6-1.8,4.6-1.8c3,0,4.6,1.2,4.6,1.8C40.3,9.9,40,10.3,39.4,10.6z M22.5,5.9c-3,0-4.6-1.2-4.6-1.8
		s1.6-1.8,4.6-1.8c3,0,4.6,1.2,4.6,1.8S25.5,5.9,22.5,5.9z M10.3,11.5c-3,0-4.6-1.2-4.6-1.8s1.6-1.8,4.6-1.8c3,0,4.7,1.2,4.7,1.8
		S13.3,11.5,10.3,11.5z M16.9,9.7c0-0.6-0.3-1.3-0.8-1.8L18.2,7c1.2,0.6,2.7,0.9,4.3,0.9c1.6,0,3.1-0.3,4.3-0.9l2.8,1.2
		c-0.3,0.5-0.5,1-0.5,1.5c0,2.2,2.8,3.8,6.6,3.8c1.5,0,3-0.3,4.2-0.8l1.8,0.8l-20,8.3L3.3,13.4l2.4-1c1.2,0.7,2.8,1,4.6,1
		C14.1,13.4,16.9,11.8,16.9,9.7z M1.9,27.8V14.9l18.7,8.5v12.9L1.9,27.8z M22.5,36.3V23.4l20.5-8.6v12.9L22.5,36.3z"/>
</g>
</svg>
