<?xml version="1.0" encoding="utf-8"?>
<!-- Generator: Adobe Illustrator 23.0.1, SVG Export Plug-In . SVG Version: 6.00 Build 0)  -->
<svg version="1.1" id="Layer_1" xmlns="http://www.w3.org/2000/svg" xmlns:xlink="http://www.w3.org/1999/xlink" x="0px" y="0px"
	 viewBox="0 0 47 30" style="enable-background:new 0 0 47 30;" xml:space="preserve">
<g>
	<path d="M0.3,0h9.9v17.4c0,0.5,0.1,1,0.2,1.3c0.1,0.4,0.4,0.6,0.6,0.9c0.3,0.2,0.6,0.4,0.9,0.5c0.3,0.1,0.7,0.1,1,0.1
		c0.4,0,0.8,0,1.2-0.1c0.4-0.1,0.9-0.2,1.4-0.4l1.1,3.7c-0.5,0.1-0.9,0.3-1.3,0.4c-0.4,0.1-0.8,0.2-1.2,0.3
		c-0.4,0.1-0.8,0.1-1.2,0.2c-0.4,0-0.9,0.1-1.4,0.1c-2.1,0-3.7-0.6-4.8-1.9c-1.1-1.3-1.6-3-1.6-5.1V3.9H0.3V0z"/>
	<path d="M18.9,30h-1.5L28.5,0.4H30L18.9,30z"/>
	<path d="M30.4,17.6c0-1.4,0.2-2.6,0.6-3.7c0.4-1.1,0.9-2,1.6-2.8c0.7-0.8,1.4-1.3,2.3-1.8c0.9-0.4,1.8-0.6,2.7-0.6
		c1,0,1.8,0.2,2.4,0.5c0.7,0.3,1.3,0.8,1.9,1.3L41.7,8V2.2h5v23.8h-4.1l-0.4-1.7h-0.1c-0.6,0.6-1.4,1.1-2.2,1.5
		c-0.8,0.4-1.7,0.6-2.5,0.6c-1.1,0-2-0.2-2.9-0.6c-0.9-0.4-1.6-1-2.2-1.8c-0.6-0.8-1.1-1.7-1.4-2.8C30.5,20.2,30.4,19,30.4,17.6z
		 M35.5,17.6c0,1.7,0.3,2.9,0.9,3.7c0.6,0.8,1.4,1.2,2.4,1.2c0.6,0,1.1-0.1,1.6-0.4c0.5-0.2,0.9-0.6,1.4-1.2V14
		c-0.5-0.4-0.9-0.7-1.4-0.9c-0.5-0.2-0.9-0.3-1.4-0.3c-0.9,0-1.7,0.4-2.4,1.2C35.8,14.8,35.5,16,35.5,17.6z"/>
</g>
</svg>
