<?xml version="1.0" encoding="utf-8"?>
<!-- Generator: Adobe Illustrator 23.0.1, SVG Export Plug-In . SVG Version: 6.00 Build 0)  -->
<svg version="1.1" id="Layer_1" xmlns="http://www.w3.org/2000/svg" xmlns:xlink="http://www.w3.org/1999/xlink" x="0px" y="0px"
	 viewBox="0 0 600 111" style="enable-background:new 0 0 600 111;" xml:space="preserve">
<style type="text/css">
	.st0{fill:#FF6000;}
	.st1{fill:#372F2A;}
</style>
<g id="IMAGES">
	<g id="logotype-minimal">
		<g id="Group-4">
			<g id="Group-3">
				<g id="LOGO">
					<path id="Fill-1" class="st0" d="M55.2,0.3C24.7,0.3,0,25.1,0,55.5s24.8,55.2,55.2,55.2s55.2-24.8,55.2-55.2
						C110.4,25.1,85.6,0.3,55.2,0.3L55.2,0.3z M55.2,103.8c-26.6,0-48.3-21.7-48.3-48.3S28.6,7.2,55.2,7.2s48.3,21.7,48.3,48.3
						S81.8,103.8,55.2,103.8L55.2,103.8z"/>
					<path id="Fill-2" class="st0" d="M67.8,42.7c0,0,6.1-4.1,7.6-4.2l1.8,2.4l0.3,0.2l1.3-0.7l0.9,0.4l3.6,4.8c0,0,1.3,0.8,2.6-1
						c0,0,0.7-0.7,0.7-1.9L71.2,22.3c0,0-1.8-0.7-2.3,1.3l-0.3,2.3l3.2,4.3l-0.3,1.2L71,31.5l-0.1,0.8l1.1,1.5c0,0-4.8,3.2-6.1,4.6
						l-6.8,5.8l-4.8,4.6l-4.2-4.1l-6.8-5.8c-1.3-1.4-6.1-4.6-6.1-4.6l1.1-1.5L38.2,32l-0.5-0.1l-0.3-1.2l3.2-4.3l-0.3-2.3
						c-0.6-2-2.3-1.3-2.3-1.3L22.6,43.2c0,1.2,0.7,1.9,0.7,1.9c1.3,1.9,2.6,1,2.6,1l3.6-4.8l0.9-0.4l1.3,0.7l0.3-0.2l1.8-2.4
						c1.6,0.1,7.6,4.2,7.6,4.2c1.8,1.1,2.4,2.7,2.4,2.7c0.9,2.5,2.6,3.9,2.6,3.9l3.4,3.2L25.2,76.6c0,0-3.1,2.1-1.7,4
						c0,0,1.8,2.8,5.8-0.1l9.3-8.5l15.6-14.8l16.2,15.4l9.3,8.5c4,2.9,5.8,0.1,5.8,0.1c1.3-1.9-1.7-4-1.7-4L58.6,53.1l4-3.8
						c0,0,3.6-2.2,4.5-4.8C67.3,44.6,66,43.8,67.8,42.7"/>
				</g>
				<g id="Group" transform="translate(41.000000, 10.000000)">
					<path id="Fill-1_1_" class="st1" d="M108.7,51.3h3.6c1.6,0,3.1-0.2,4.5-0.5s2.6-0.9,3.6-1.6c1-0.8,1.8-1.8,2.4-3
						c0.6-1.2,0.9-2.7,0.9-4.5c0-1.6-0.3-2.9-0.9-4c-0.6-1.1-1.4-2.1-2.3-2.8c-1-0.7-2.1-1.3-3.4-1.7c-1.3-0.4-2.7-0.6-4.2-0.6h-4.1
						v18.7H108.7z M101.7,26.1h10.4c2.5,0,4.9,0.3,7.2,0.9s4.2,1.5,5.9,2.7c1.7,1.3,3,2.9,4,4.9s1.5,4.5,1.5,7.4
						c0,2.6-0.5,4.8-1.4,6.8c-1,2-2.3,3.6-3.9,4.9c-1.6,1.3-3.5,2.3-5.6,3s-4.4,1-6.7,1h-11.3L101.7,26.1L101.7,26.1z"/>
					<path id="Fill-2_1_" class="st1" d="M140.6,41.9c0,1.5,0.2,2.9,0.7,4.1s1.1,2.3,2,3.2c0.9,0.9,1.9,1.6,3.1,2.1
						c1.2,0.5,2.5,0.8,4,0.8s2.8-0.3,4-0.8s2.2-1.2,3.1-2.1c0.9-0.9,1.5-2,2-3.2s0.7-2.6,0.7-4.1s-0.2-2.8-0.7-4.1
						c-0.5-1.3-1.1-2.3-2-3.2c-0.9-0.9-1.9-1.6-3.1-2.1c-1.2-0.5-2.5-0.8-4-0.8s-2.8,0.3-4,0.8s-2.2,1.2-3.1,2.1
						c-0.9,0.9-1.5,2-2,3.2C140.8,39.1,140.6,40.5,140.6,41.9 M133.4,41.9c0-2.5,0.4-4.8,1.3-6.9c0.8-2.1,2-3.8,3.5-5.3
						c1.5-1.4,3.3-2.6,5.4-3.3c2.1-0.8,4.3-1.2,6.8-1.2s4.7,0.4,6.8,1.2c2.1,0.8,3.9,1.9,5.4,3.3s2.7,3.2,3.5,5.3
						c0.8,2.1,1.3,4.4,1.3,6.9s-0.4,4.8-1.3,6.9c-0.8,2.1-2,3.8-3.5,5.3c-1.5,1.4-3.3,2.6-5.4,3.3c-2.1,0.8-4.3,1.2-6.8,1.2
						s-4.7-0.4-6.8-1.2c-2.1-0.8-3.9-1.9-5.4-3.3s-2.7-3.2-3.5-5.3C133.8,46.7,133.4,44.5,133.4,41.9"/>
					<polyline id="Fill-3" class="st1" points="171.4,26.1 178.3,26.1 178.3,51.3 191.2,51.3 191.2,57.8 171.4,57.8 171.4,26.1 
											"/>
					<polyline id="Fill-4" class="st1" points="193.8,26.1 200.7,26.1 200.7,51.3 213.6,51.3 213.6,57.8 193.8,57.8 193.8,26.1 
											"/>
					<path id="Fill-5" class="st1" d="M231.1,35.3l-3.8,9.8h7.7L231.1,35.3L231.1,35.3z M228.5,26.1h5.7l13.7,31.7h-7.8l-2.7-6.7
						h-12.2l-2.6,6.7h-7.7L228.5,26.1L228.5,26.1z"/>
					<path id="Fill-6" class="st1" d="M257.2,39.2h4.1c0.6,0,1.3,0,2-0.1c0.7,0,1.3-0.2,1.9-0.4c0.6-0.2,1-0.6,1.4-1.1
						s0.6-1.1,0.6-2c0-0.8-0.2-1.4-0.5-1.9s-0.7-0.8-1.2-1.1c-0.5-0.3-1.1-0.4-1.7-0.5c-0.7-0.1-1.3-0.1-1.9-0.1h-4.5v7.2H257.2z
						 M250.2,26.1h12.2c1.6,0,3.1,0.2,4.6,0.5c1.4,0.3,2.7,0.8,3.8,1.6c1.1,0.7,1.9,1.7,2.6,3c0.6,1.2,1,2.8,1,4.6
						c0,2.2-0.6,4.1-1.7,5.7c-1.2,1.6-2.8,2.6-5.1,3l8,13.4h-8.3l-6.6-12.7h-3.4v12.7h-6.9V26.1H250.2z"/>
					<path id="Fill-7" class="st1" d="M307,33.8c-0.6-0.7-1.3-1.2-2.3-1.6c-1-0.3-1.9-0.5-2.7-0.5c-0.5,0-1,0.1-1.6,0.2
						c-0.5,0.1-1,0.3-1.5,0.6c-0.5,0.3-0.9,0.6-1.2,1c-0.3,0.4-0.4,0.9-0.4,1.5c0,1,0.4,1.7,1.1,2.2s1.6,0.9,2.7,1.3
						s2.2,0.7,3.5,1.1s2.4,0.9,3.5,1.5c1.1,0.7,2,1.5,2.7,2.6s1.1,2.6,1.1,4.4s-0.3,3.3-1,4.6c-0.7,1.3-1.5,2.4-2.6,3.3
						s-2.4,1.5-3.9,1.9s-3,0.6-4.6,0.6c-2,0-3.9-0.3-5.7-0.9c-1.8-0.6-3.4-1.6-4.9-3l4.9-5.5c0.7,1,1.6,1.7,2.7,2.2s2.2,0.8,3.4,0.8
						c0.6,0,1.1-0.1,1.7-0.2s1.1-0.3,1.6-0.6c0.5-0.3,0.8-0.6,1.1-1c0.3-0.4,0.4-0.9,0.4-1.5c0-1-0.4-1.7-1.1-2.3
						c-0.7-0.6-1.6-1-2.7-1.4s-2.3-0.8-3.6-1.2c-1.3-0.4-2.5-0.9-3.6-1.6s-2-1.5-2.7-2.6s-1.1-2.5-1.1-4.3c0-1.7,0.3-3.2,1-4.5
						s1.6-2.4,2.7-3.2c1.1-0.9,2.4-1.5,3.9-1.9s2.9-0.6,4.5-0.6c1.8,0,3.5,0.3,5.2,0.8s3.2,1.4,4.5,2.6L307,33.8"/>
					<polyline id="Fill-8" class="st1" points="316.5,26.1 323.5,26.1 323.5,37.9 336.9,37.9 336.9,26.1 343.9,26.1 343.9,57.8 
						336.9,57.8 336.9,44.1 323.5,44.1 323.5,57.8 316.5,57.8 316.5,26.1 					"/>
					<path id="Fill-9" class="st1" d="M362.5,35.3l-3.8,9.8h7.7L362.5,35.3L362.5,35.3z M359.8,26.1h5.7l13.7,31.7h-7.8l-2.7-6.7
						h-12.2l-2.6,6.7h-7.7L359.8,26.1L359.8,26.1z"/>
					<polyline id="Fill-10" class="st1" points="373.8,26.1 381.7,26.1 389.5,46.8 389.6,46.8 397.5,26.1 405,26.1 392,57.8 
						386.4,57.8 373.8,26.1 					"/>
					<polyline id="Fill-11" class="st1" points="407.6,26.1 429,26.1 429,32.5 414.6,32.5 414.6,38.4 428.2,38.4 428.2,44.9 
						414.6,44.9 414.6,51.3 429.8,51.3 429.8,57.8 407.6,57.8 407.6,26.1 					"/>
					<path id="Fill-12" class="st1" d="M468.4,34.3c-0.7-0.8-1.5-1.5-2.5-1.9s-2.1-0.7-3.4-0.7s-2.5,0.3-3.6,0.8s-2.1,1.2-2.9,2.1
						s-1.5,2-1.9,3.2c-0.5,1.3-0.7,2.6-0.7,4.1s0.2,2.9,0.7,4.1s1.1,2.3,1.9,3.2c0.8,0.9,1.7,1.6,2.8,2.1c1.1,0.5,2.2,0.8,3.5,0.8
						c1.4,0,2.7-0.3,3.8-0.9c1.1-0.6,2-1.4,2.7-2.5l5.8,4.3c-1.3,1.9-3,3.3-5.1,4.2c-2,0.9-4.2,1.3-6.3,1.3c-2.5,0-4.7-0.4-6.8-1.2
						c-2.1-0.8-3.9-1.9-5.4-3.3s-2.7-3.2-3.5-5.3c-0.8-2.1-1.3-4.4-1.3-6.9s0.4-4.8,1.3-6.9c0.8-2.1,2-3.8,3.5-5.3
						c1.5-1.4,3.3-2.6,5.4-3.3c2.1-0.8,4.3-1.2,6.8-1.2c0.9,0,1.8,0.1,2.8,0.2c1,0.2,1.9,0.4,2.8,0.8s1.8,0.8,2.7,1.4
						c0.9,0.6,1.6,1.3,2.3,2.2L468.4,34.3"/>
					<polyline id="Fill-13" class="st1" points="478.1,26.1 485,26.1 485,51.3 497.9,51.3 497.9,57.8 478.1,57.8 478.1,26.1 					
						"/>
					<path id="Fill-14" class="st1" d="M527.9,45.5c0,1.9-0.3,3.6-0.8,5.2c-0.6,1.6-1.4,3-2.5,4.1c-1.1,1.2-2.5,2.1-4.2,2.7
						c-1.7,0.7-3.6,1-5.7,1c-2.2,0-4.1-0.3-5.8-1s-3-1.6-4.2-2.7c-1.1-1.2-2-2.5-2.5-4.1c-0.6-1.6-0.8-3.3-0.8-5.2V26h6.9v19.2
						c0,1,0.2,1.9,0.5,2.7c0.3,0.8,0.7,1.6,1.3,2.2s1.2,1.1,2,1.4s1.6,0.5,2.6,0.5s1.8-0.2,2.5-0.5c0.8-0.3,1.4-0.8,2-1.4
						s1-1.3,1.3-2.2c0.3-0.8,0.5-1.7,0.5-2.7V26h6.9V45.5"/>
					<path id="Fill-15" class="st1" d="M541.2,51.8h6.2c0.5,0,1.1-0.1,1.6-0.2s1-0.3,1.5-0.6c0.4-0.3,0.8-0.7,1.1-1.2
						s0.4-1.1,0.4-1.7c0-0.7-0.2-1.3-0.6-1.8c-0.4-0.5-0.8-0.8-1.4-1.1c-0.6-0.2-1.2-0.4-1.8-0.5c-0.7-0.1-1.3-0.1-1.8-0.1h-5.2
						V51.8L541.2,51.8z M541.2,38.7h5c0.5,0,1.1-0.1,1.6-0.2s1-0.3,1.4-0.6c0.4-0.3,0.8-0.6,1-1.1c0.3-0.4,0.4-1,0.4-1.6
						c0-0.7-0.1-1.2-0.4-1.6c-0.3-0.4-0.6-0.8-1.1-1c-0.4-0.2-0.9-0.4-1.5-0.5s-1.1-0.2-1.6-0.2h-4.7v6.8H541.2z M534.2,26.1H546
						c1.4,0,2.7,0.1,4.1,0.3c1.4,0.2,2.6,0.6,3.7,1.2c1.1,0.6,2,1.4,2.7,2.4s1,2.4,1,4.2c0,1.8-0.5,3.3-1.5,4.5s-2.3,2-3.9,2.5v0.1
						c1,0.2,2,0.4,2.8,0.9c0.8,0.4,1.6,1,2.2,1.7c0.6,0.7,1.1,1.5,1.4,2.3s0.5,1.9,0.5,2.9c0,1.7-0.4,3.1-1.1,4.2
						c-0.7,1.1-1.6,2-2.8,2.7c-1.1,0.7-2.4,1.2-3.8,1.5c-1.4,0.3-2.8,0.4-4.2,0.4h-12.9V26.1L534.2,26.1z"/>
				</g>
			</g>
		</g>
	</g>
</g>
</svg>
