<?xml version="1.0" encoding="utf-8"?>
<!-- Generator: Adobe Illustrator 23.0.1, SVG Export Plug-In . SVG Version: 6.00 Build 0)  -->
<svg version="1.1" id="Layer_1" xmlns="http://www.w3.org/2000/svg" xmlns:xlink="http://www.w3.org/1999/xlink" x="0px" y="0px"
	 viewBox="0 0 47 30" style="enable-background:new 0 0 47 30;" xml:space="preserve">
<g>
	<path d="M0,15.4c0-1.4,0.2-2.6,0.6-3.7c0.4-1.1,0.9-2,1.6-2.8c0.7-0.8,1.4-1.3,2.3-1.7c0.9-0.4,1.7-0.6,2.7-0.6
		c1,0,1.8,0.2,2.4,0.5c0.7,0.3,1.3,0.8,1.9,1.3l-0.2-2.6V0h5v23.8h-4.1l-0.4-1.7h-0.1c-0.6,0.6-1.4,1.1-2.2,1.5
		c-0.8,0.4-1.6,0.6-2.5,0.6c-1.1,0-2-0.2-2.9-0.6s-1.6-1-2.2-1.7c-0.6-0.8-1.1-1.7-1.4-2.8C0.2,18,0,16.8,0,15.4z M5.1,15.3
		C5.1,17,5.4,18.2,6,19c0.6,0.8,1.4,1.2,2.4,1.2c0.6,0,1.1-0.1,1.6-0.4c0.5-0.2,0.9-0.6,1.4-1.2v-6.8c-0.5-0.4-0.9-0.7-1.4-0.9
		c-0.5-0.2-0.9-0.3-1.4-0.3c-0.9,0-1.7,0.4-2.4,1.2C5.4,12.6,5.1,13.7,5.1,15.3z"/>
	<path d="M19,30h-1.5L28.6,0.4h1.5L19,30z"/>
	<path d="M30.9,21.4c0-1,0.2-1.8,0.6-2.5c0.4-0.7,1.1-1.3,1.9-1.8s2-0.9,3.4-1.2c1.4-0.3,3.1-0.5,5.1-0.6c-0.1-0.8-0.4-1.4-1-1.8
		c-0.6-0.4-1.4-0.6-2.6-0.6c-0.8,0-1.6,0.1-2.5,0.4c-0.8,0.3-1.7,0.7-2.7,1.1l-1.8-3.3c1.2-0.7,2.4-1.2,3.7-1.6
		C36.6,9,38,8.8,39.4,8.8c2.3,0,4.2,0.6,5.6,1.9c1.4,1.2,2,3.2,2,5.7V26h-4.1l-0.4-1.9h-0.1c-0.9,0.7-1.8,1.2-2.8,1.6
		c-1,0.4-2.1,0.7-3.1,0.7c-0.9,0-1.6-0.1-2.3-0.4c-0.7-0.3-1.3-0.6-1.7-1.1c-0.5-0.5-0.8-1-1.1-1.6C31.1,22.8,30.9,22.1,30.9,21.4z
		 M35.7,21c0,0.5,0.2,0.9,0.6,1.2c0.4,0.3,1,0.4,1.7,0.4c0.7,0,1.4-0.2,2.1-0.5c0.7-0.3,1.3-0.7,1.9-1.1v-2.8
		c-1.2,0.1-2.3,0.2-3.1,0.3c-0.8,0.2-1.5,0.4-1.9,0.6c-0.5,0.2-0.8,0.5-1,0.8C35.8,20.3,35.7,20.6,35.7,21z"/>
</g>
</svg>
