<svg xmlns="http://www.w3.org/2000/svg" viewBox="0 0 45 46"><path d="M15.9 36.2c-3.6 0-6.6-3-6.6-6.6s3-6.6 6.6-6.6 6.6 3 6.6 6.6-2.9 6.6-6.6 6.6zm0-11.3c-2.6 0-4.7 2.1-4.7 4.7s2.1 4.7 4.7 4.7 4.7-2.1 4.7-4.7-2.1-4.7-4.7-4.7z"/><path d="M19.7 45.7h-7.6c-.5 0-.9-.4-.9-.9V42c-1.3-.5-2.5-1.2-3.6-2.1l-2.4 1.4c-.5.3-1 .1-1.3-.3L.1 34.5c-.1-.4-.1-.6-.1-.9s.2-.4.4-.6l2.4-1.4c-.2-1.4-.2-2.8 0-4.2L.4 26c-.5-.3-.6-.8-.3-1.3l3.8-6.5c.1-.2.3-.4.6-.4.2-.1.5 0 .7.1l2.4 1.4c1.1-.9 2.3-1.6 3.6-2.1v-2.8c0-.5.4-.9.9-.9h7.6c.5 0 .9.4.9.9v2.8c1.3.5 2.5 1.2 3.6 2.1l2.4-1.4c.5-.3 1-.1 1.3.3l3.8 6.5c.3.5.1 1-.3 1.3L29 27.5c.2 1.4.2 2.8 0 4.2l2.4 1.4c.2.1.4.3.4.6.1.2 0 .5-.1.7l-3.8 6.5c-.1.2-.3.4-.6.4-.2.1-.5 0-.7-.1l-2.4-1.4c-1.1.9-2.3 1.6-3.6 2.1v2.8c0 .5-.4 1-.9 1zm-6.6-1.9h5.7v-2.5c0-.4.3-.8.7-.9 1.5-.5 2.9-1.3 4.1-2.4.3-.3.8-.3 1.1-.1l2.2 1.2 2.8-4.9-2.3-1.2c-.4-.2-.5-.6-.5-1 .3-1.6.3-3.2 0-4.7-.1-.4.1-.8.5-1l2.2-1.2-2.8-4.9-2.2 1.2c-.4.2-.8.2-1.1-.1-1.2-1.1-2.6-1.9-4.1-2.4-.4-.1-.7-.5-.7-.9v-2.5H13V18c0 .4-.3.8-.7.9-1.5.5-2.9 1.3-4.1 2.4-.3.3-.8.3-1.1.1l-2.2-1.2L2.2 25l2.2 1.2c.4.2.5.6.5 1-.3 1.6-.3 3.2 0 4.7.1.4-.1.8-.5 1l-2.2 1.2L5 39l2.2-1.2c.4-.1.8-.1 1.1.2 1.2 1.1 2.6 1.9 4.1 2.4.4.1.7.5.7.9v2.5zm22.7-30.2c-2.1 0-3.8-1.7-3.8-3.8S33.7 6 35.8 6c2.1 0 3.8 1.7 3.8 3.8s-1.8 3.8-3.8 3.8zm0-5.7c-1 0-1.9.8-1.9 1.9s.8 1.9 1.9 1.9 1.9-.8 1.9-1.9-.9-1.9-1.9-1.9z"/><path d="M37.6 19.2h-3.8c-.5 0-.9-.4-.9-.9v-1.5c-.6-.3-1.2-.6-1.8-1l-1.3.8c-.2.1-.5.2-.7.1-.2-.1-.4-.2-.6-.4L26.6 13c-.3-.5-.1-1 .3-1.3l1.3-.8c-.1-.7-.1-1.4 0-2.1L27 8c-.2-.1-.4-.3-.4-.6-.1-.2 0-.5.1-.7l1.9-3.3c0-.2.3-.4.5-.4.2-.1.5 0 .7.1l1.3.8c.5-.4 1.2-.8 1.8-1V1.3c0-.5.4-.9.9-.9h3.8c.5 0 .9.4.9.9v1.5c.6.3 1.2.6 1.8 1l1.3-.8c.2-.1.5-.2.7-.1s.4.2.6.4l1.9 3.3c.3.5.1 1-.3 1.3l-1.3.8c.1.7.1 1.4 0 2.1l1.3.8c.5.3.6.8.3 1.3L43 16.1c-.1.2-.3.4-.6.4-.2.1-.5 0-.7-.1l-1.3-.8c-.5.4-1.2.8-1.8 1v1.5c0 .7-.4 1.1-1 1.1zm-2.8-1.9h1.9v-1.2c0-.4.3-.8.7-.9.8-.3 1.6-.7 2.3-1.3.3-.3.8-.3 1.1-.1l1.1.6.9-1.6-1.1-.6c-.4-.2-.5-.6-.4-1 .2-.9.2-1.7 0-2.6-.1-.4.1-.8.4-1l1.1-.6-.9-1.6-1.1.6c-.4 0-.9 0-1.2-.3-.7-.6-1.4-1.1-2.2-1.3-.4-.1-.7-.5-.7-.9V2.2h-1.9v1.2c0 .4-.3.8-.7.9-.8.3-1.6.7-2.3 1.3-.2.4-.7.4-1 .2l-1.1-.6-.9 1.6 1.1.6c.4.2.5.6.4 1-.2.9-.2 1.7 0 2.6.1.4-.1.8-.4 1l-1.1.6.9 1.6 1.1-.6c.4-.2.8-.2 1.1.1.7.6 1.4 1.1 2.3 1.3.4.1.7.5.7.9v1.4z"/></svg>