<svg xmlns="http://www.w3.org/2000/svg" viewBox="0 0 41 45"><path d="M20.5.038c1.3 0 2.6.5 3.7 1.4.5-.2 1-.4 1.5-.4 2 0 3.7 1.7 3.7 3.7 0 1-.4 1.9-1.1 2.6.1.3.3.7.4 1 1.4-.2 2.7-.4 3.9-.3 3.3 0 6.1 1 7.4 3.3.8 1.4.9 3.1.5 4.8-.4 1.7-1.3 3.5-2.6 5.2l-.9 1.2c.3.4.7.8.9 1.2 1.3 1.8 2.2 3.5 2.6 5.2.4 1.7.3 3.4-.5 4.8-.2.4-.5.7-.8 1 .1.3.1.6.1.9 0 2-1.7 3.7-3.7 3.7-1.5 0-2.8-.9-3.4-2.2-1.1 0-2.4-.1-3.6-.3-.2.5-.4.9-.6 1.4-.9 2-2 3.7-3.2 4.9-1.3 1.2-2.8 2-4.4 2s-3.1-.8-4.4-2c-1.3-1.2-2.3-2.9-3.2-4.9-.2-.4-.4-.9-.6-1.4-.7.1-1.4.2-2 .3-.5 1.3-1.9 2.3-3.4 2.3-1.9 0-3.5-1.5-3.6-3.4-.9-.5-1.7-1.2-2.2-2.1-.8-1.4-.9-3.1-.5-4.8.4-1.7 1.3-3.5 2.6-5.2l.9-1.2c-.3-.4-.7-.8-.9-1.2-1.3-1.8-2.2-3.5-2.6-5.2-.4-1.7-.3-3.4.5-4.8 1.4-2.5 4.5-3.4 8.2-3.3 1 0 2 .2 3.1.3.2-.5.4-1 .6-1.4.9-2 2-3.7 3.2-4.9 1.3-1.5 2.8-2.2 4.4-2.2zm0 2.1c-1 0-2 .4-2.9 1.4-1 1-2 2.4-2.8 4.3-.1.3-.3.7-.4 1 2 .5 4 1.2 6.1 2.1 2.1-.9 4.1-1.6 6.1-2.1-.1-.2-.1-.3-.2-.4-.2 0-.5.1-.7.1-2 0-3.7-1.7-3.7-3.7 0-.7.2-1.3.5-1.9-.6-.6-1.3-.8-2-.8zm5.2 1c-.9 0-1.6.7-1.6 1.6s.7 1.6 1.6 1.6c.9 0 1.6-.7 1.6-1.6s-.7-1.6-1.6-1.6zm6.9 6.9c-1 0-2.1.1-3.2.3.6 1.9 1 4 1.3 6.3 1.8 1.4 3.5 2.8 4.9 4.3.2-.3.4-.6.7-.9 1.2-1.6 2-3.2 2.3-4.5.3-1.3.2-2.4-.3-3.2-.9-1.4-2.8-2.2-5.7-2.3zm-23.5 0c-3.3-.1-5.4.7-6.3 2.2-.5.8-.6 1.9-.3 3.2.3 1.3 1.1 2.9 2.3 4.5.2.3.4.6.7.9 1.4-1.5 3-2.9 4.8-4.3.3-2.3.7-4.4 1.3-6.3-.8 0-1.7-.1-2.5-.2zm4.6.7c-.4 1.3-.7 2.7-1 4.3.8-.5 1.7-1.1 2.5-1.6.9-.5 1.7-1 2.6-1.4-1.4-.5-2.8-1-4.1-1.3zm13.6 0c-1.3.3-2.7.7-4.2 1.3.9.4 1.7.9 2.6 1.4.9.5 1.7 1 2.5 1.6-.2-1.5-.5-3-.9-4.3zm-6.8 2.4c-1.4.6-2.8 1.3-4.2 2.1-1.4.8-2.7 1.7-4 2.6-.2 1.5-.2 3.1-.2 4.7s.1 3.2.2 4.7c1.2.9 2.6 1.7 4 2.6 1.4.8 2.8 1.5 4.2 2.2 1.4-.6 2.8-1.3 4.2-2.2 1.4-.8 2.7-1.7 4-2.6.2-1.5.2-3.1.2-4.7s-.1-3.2-.2-4.7c-1.2-.9-2.6-1.8-4-2.6s-2.8-1.5-4.2-2.1zm0 5.7c2 0 3.7 1.7 3.7 3.7s-1.7 3.7-3.7 3.7-3.7-1.7-3.7-3.7 1.7-3.7 3.7-3.7zm10.4.7c.1 1 .1 2 .1 3s0 2-.1 3c1.2-1 2.2-2 3.2-3-1-1-2-2-3.2-3zm-20.8 0c-1.2 1-2.3 2-3.2 3 .9 1 2 2 3.2 3-.1-1-.1-2-.1-3s.1-2 .1-3zm10.4 1.4c-.9 0-1.6.7-1.6 1.6s.7 1.6 1.6 1.6c.9 0 1.6-.7 1.6-1.6s-.7-1.6-1.6-1.6zm14.9 3.1c-1.4 1.4-3 2.9-4.8 4.3-.3 2.3-.7 4.4-1.3 6.3 1 .2 1.9.2 2.7.3.3-1.7 1.8-3 3.6-3 .9 0 1.8.4 2.4.9l.1-.1c.5-.8.6-1.9.3-3.3-.3-1.3-1.1-2.9-2.3-4.5-.2-.3-.4-.6-.7-.9zm-29.8 0c-.2.3-.5.6-.7.9-1.2 1.6-2 3.2-2.3 4.5-.3 1.3-.2 2.4.3 3.3.2.4.5.7.9 1 .6-1.1 1.8-1.8 3.1-1.8 1.8 0 3.2 1.3 3.6 2.9.4 0 .8-.1 1.2-.2-.6-1.9-1-4.1-1.3-6.3-1.8-1.4-3.5-2.8-4.8-4.3zm22.7 6c-.8.5-1.7 1.1-2.5 1.6-.9.5-1.7 1-2.6 1.4 1.4.5 2.8 1 4.2 1.3.3-1.4.6-2.8.9-4.3zm-15.6 0c.3 1.5.6 3 1 4.3 1.3-.3 2.7-.8 4.2-1.3-.9-.4-1.7-.9-2.6-1.4-.9-.6-1.7-1.1-2.6-1.6zm23 4c-.9 0-1.6.7-1.6 1.6 0 .9.7 1.6 1.6 1.6s1.6-.7 1.6-1.6c-.1-.9-.7-1.6-1.6-1.6zm-28.8 0c-.9 0-1.6.7-1.6 1.6 0 .9.7 1.6 1.6 1.6s1.6-.7 1.6-1.6c0-.9-.7-1.6-1.6-1.6zm13.6.2c-2.1.9-4.2 1.6-6.1 2.1.1.3.3.7.4 1 .8 1.9 1.8 3.3 2.8 4.3 1 1 2 1.4 2.9 1.4s2-.5 2.9-1.4 2-2.4 2.8-4.3c.1-.3.3-.7.4-1-1.9-.6-4-1.3-6.1-2.1z"/></svg>