<svg xmlns="http://www.w3.org/2000/svg" viewBox="0 0 45 39"><path d="M22.5 18.1c3.8 0 6.6-1.6 6.6-3.8 0-2.2-2.8-3.8-6.6-3.8s-6.6 1.6-6.6 3.8c0 2.2 2.8 3.8 6.6 3.8zm0-1.9c-3 0-4.6-1.2-4.6-1.8s1.6-1.8 4.6-1.8c3 0 4.6 1.2 4.6 1.8s-1.6 1.8-4.6 1.8z"/><path d="M45 13.3c0-.1 0-.2-.1-.3l-.1-.1c0-.1-.1-.1-.2-.2l-.1-.1-3-1.3c.4-.5.6-1.1.6-1.6 0-2.2-2.8-3.8-6.6-3.8-1.6 0-3.2.3-4.4.9l-2.7-1.2c.4-.5.6-1 .6-1.6C29 1.8 26.2.2 22.4.2S15.8 1.8 15.8 4c0 .5.2 1.1.6 1.6l-2.2 1c-1.1-.5-2.5-.7-3.9-.7-3.8 0-6.6 1.6-6.6 3.8 0 .5.1.9.4 1.3L.5 12.5l-.2.1-.2.2v.2c0 .1-.1.2-.1.3v15.1c0 .4.2.7.6.9l20.6 9.4c.1.1.3.1.4.1.1 0 .3 0 .4-.1l22.5-9.4c.4-.2.6-.5.6-.9v-15l-.1-.1zm-5.6-2.7c-.1 0-.2.1-.3.2-.9.5-2.2.7-3.5.7-3 0-4.6-1.2-4.6-1.8s1.6-1.8 4.6-1.8c3 0 4.6 1.2 4.6 1.8.1.2-.2.6-.8.9zM22.5 5.9c-3 0-4.6-1.2-4.6-1.8s1.6-1.8 4.6-1.8c3 0 4.6 1.2 4.6 1.8s-1.6 1.8-4.6 1.8zm-12.2 5.6c-3 0-4.6-1.2-4.6-1.8s1.6-1.8 4.6-1.8c3 0 4.7 1.2 4.7 1.8s-1.7 1.8-4.7 1.8zm6.6-1.8c0-.6-.3-1.3-.8-1.8l2.1-.9c1.2.6 2.7.9 4.3.9 1.6 0 3.1-.3 4.3-.9l2.8 1.2c-.3.5-.5 1-.5 1.5 0 2.2 2.8 3.8 6.6 3.8 1.5 0 3-.3 4.2-.8l1.8.8-20 8.3-18.4-8.4 2.4-1c1.2.7 2.8 1 4.6 1 3.8 0 6.6-1.6 6.6-3.7zm-15 18.1V14.9l18.7 8.5v12.9L1.9 27.8zm20.6 8.5V23.4L43 14.8v12.9l-20.5 8.6z"/></svg>