<svg xmlns="http://www.w3.org/2000/svg" viewBox="0 0 45 45"><path d="M44.1 43.1h-.9V15.9c0-.5-.4-.9-.9-.9h-5.6c-.5 0-.9.4-.9.9v27.2H32v-14c0-.5-.4-.9-.9-.9h-5.6c-.5 0-.9.4-.9.9v14.1h-3.8V25.3c0-.5-.4-.9-.9-.9h-5.6c-.5 0-.9.4-.9.9v17.8h-4v-8.4c0-.5-.4-.9-.9-.9H2.8c-.5 0-.9.4-.9.9v8.4h-1c-.5 0-.9.4-.9.9s.4 1 .9 1h43c.5 0 .9-.4.9-.9s-.2-1-.7-1zm-40.3 0v-7.5h3.8v7.5H3.8zm11.2 0V26.2h3.8v16.9H15zm11.2 0V30H30v13.1h-3.8zm11.3 0V16.9h3.8v26.2h-3.8z"/><path d="M5.6 24.4c1.6 0 2.8-1.3 2.8-2.8 0-.3-.1-.7-.2-1l7.2-6c.4.2.9.4 1.4.4.9 0 1.7-.4 2.2-1.1l6.2 2.1c0 1.5 1.3 2.8 2.8 2.8 1.6 0 2.8-1.3 2.8-2.8 0-.5-.1-1-.4-1.4l7.8-9.1c.3.1.7.2 1 .2 1.6 0 2.8-1.3 2.8-2.8S40.9 0 39.4 0s-2.8 1.3-2.8 2.8c0 .5.1 1 .4 1.4l-7.8 9.1c-.3-.1-.7-.2-1-.2-.9 0-1.7.4-2.2 1.1l-6.2-2.1c0-1.5-1.3-2.8-2.8-2.8-1.6 0-2.8 1.3-2.8 2.8 0 .3.1.7.2 1l-7.2 6c-.4-.2-.9-.4-1.4-.4C4.2 18.7 3 20 3 21.5s1.1 2.9 2.6 2.9zM39.4 1.9c.5 0 .9.4.9.9s-.4.9-.9.9-.9-.4-.9-.9.4-.9.9-.9zM28.1 15c.5 0 .9.4.9.9s-.4.9-.9.9-.9-.4-.9-.9.4-.9.9-.9zm-11.2-3.8c.5 0 .9.4.9.9s-.4.9-.9.9-.9-.4-.9-.9.4-.9.9-.9zM5.6 20.6c.5 0 .9.4.9.9s-.4.9-.9.9-.9-.4-.9-.9.4-.9.9-.9z"/></svg>