<svg xmlns="http://www.w3.org/2000/svg" viewBox="0 0 47 30"><path d="M0 15.4c0-1.4.2-2.6.6-3.7.4-1.1.9-2 1.6-2.8.7-.8 1.4-1.3 2.3-1.7.9-.4 1.7-.6 2.7-.6 1 0 1.8.2 2.4.5.7.3 1.3.8 1.9 1.3l-.2-2.6V0h5v23.8h-4.1l-.4-1.7h-.1c-.6.6-1.4 1.1-2.2 1.5-.8.4-1.6.6-2.5.6-1.1 0-2-.2-2.9-.6s-1.6-1-2.2-1.7c-.6-.8-1.1-1.7-1.4-2.8C.2 18 0 16.8 0 15.4zm5.1-.1c0 1.7.3 2.9.9 3.7.6.8 1.4 1.2 2.4 1.2.6 0 1.1-.1 1.6-.4.5-.2.9-.6 1.4-1.2v-6.8c-.5-.4-.9-.7-1.4-.9-.5-.2-.9-.3-1.4-.3-.9 0-1.7.4-2.4 1.2-.8.8-1.1 1.9-1.1 3.5zM19 30h-1.5L28.6.4h1.5L19 30zm11.9-8.6c0-1 .2-1.8.6-2.5.4-.7 1.1-1.3 1.9-1.8s2-.9 3.4-1.2c1.4-.3 3.1-.5 5.1-.6-.1-.8-.4-1.4-1-1.8-.6-.4-1.4-.6-2.6-.6-.8 0-1.6.1-2.5.4-.8.3-1.7.7-2.7 1.1l-1.8-3.3c1.2-.7 2.4-1.2 3.7-1.6 1.6-.5 3-.7 4.4-.7 2.3 0 4.2.6 5.6 1.9 1.4 1.2 2 3.2 2 5.7V26h-4.1l-.4-1.9h-.1c-.9.7-1.8 1.2-2.8 1.6-1 .4-2.1.7-3.1.7-.9 0-1.6-.1-2.3-.4-.7-.3-1.3-.6-1.7-1.1-.5-.5-.8-1-1.1-1.6-.3-.5-.5-1.2-.5-1.9zm4.8-.4c0 .5.2.9.6 1.2.4.3 1 .4 1.7.4s1.4-.2 2.1-.5c.7-.3 1.3-.7 1.9-1.1v-2.8c-1.2.1-2.3.2-3.1.3-.8.2-1.5.4-1.9.6-.5.2-.8.5-1 .8-.2.4-.3.7-.3 1.1z"/></svg>