<svg xmlns="http://www.w3.org/2000/svg" viewBox="0 0 47 30"><path d="M.3 0h9.9v17.4c0 .5.1 1 .2 1.3.1.4.4.6.6.9.3.2.6.4.9.5.3.1.7.1 1 .1.4 0 .8 0 1.2-.1.4-.1.9-.2 1.4-.4l1.1 3.7c-.5.1-.9.3-1.3.4l-1.2.3c-.4.1-.8.1-1.2.2-.4 0-.9.1-1.4.1-2.1 0-3.7-.6-4.8-1.9-1.1-1.3-1.6-3-1.6-5.1V3.9H.3V0zm18.6 30h-1.5L28.5.4H30L18.9 30zm11.5-12.4c0-1.4.2-2.6.6-3.7.4-1.1.9-2 1.6-2.8.7-.8 1.4-1.3 2.3-1.8.9-.4 1.8-.6 2.7-.6 1 0 1.8.2 2.4.5.7.3 1.3.8 1.9 1.3L41.7 8V2.2h5V26h-4.1l-.4-1.7h-.1c-.6.6-1.4 1.1-2.2 1.5-.8.4-1.7.6-2.5.6-1.1 0-2-.2-2.9-.6-.9-.4-1.6-1-2.2-1.8-.6-.8-1.1-1.7-1.4-2.8-.4-1-.5-2.2-.5-3.6zm5.1 0c0 1.7.3 2.9.9 3.7.6.8 1.4 1.2 2.4 1.2.6 0 1.1-.1 1.6-.4.5-.2.9-.6 1.4-1.2V14c-.5-.4-.9-.7-1.4-.9-.5-.2-.9-.3-1.4-.3-.9 0-1.7.4-2.4 1.2-.8.8-1.1 2-1.1 3.6z"/></svg>