<svg version="1.1" id="Layer_1" xmlns="http://www.w3.org/2000/svg" x="0" y="0" viewBox="0 0 600 111" xml:space="preserve"><style>.st0{fill:#ff6000}.st1{fill:#372f2a}</style><g id="IMAGES"><g id="logotype-minimal"><g id="Group-4"><g id="Group-3"><g id="LOGO"><path id="Fill-1" class="st0" d="M55.2.3C24.7.3 0 25.1 0 55.5s24.8 55.2 55.2 55.2 55.2-24.8 55.2-55.2C110.4 25.1 85.6.3 55.2.3zm0 103.5c-26.6 0-48.3-21.7-48.3-48.3S28.6 7.2 55.2 7.2s48.3 21.7 48.3 48.3-21.7 48.3-48.3 48.3z"/><path id="Fill-2" class="st0" d="M67.8 42.7s6.1-4.1 7.6-4.2l1.8 2.4.3.2 1.3-.7.9.4 3.6 4.8s1.3.8 2.6-1c0 0 .7-.7.7-1.9L71.2 22.3s-1.8-.7-2.3 1.3l-.3 2.3 3.2 4.3-.3 1.2-.5.1-.1.8 1.1 1.5s-4.8 3.2-6.1 4.6l-6.8 5.8-4.8 4.6-4.2-4.1-6.8-5.8c-1.3-1.4-6.1-4.6-6.1-4.6l1.1-1.5-.1-.8-.5-.1-.3-1.2 3.2-4.3-.3-2.3c-.6-2-2.3-1.3-2.3-1.3L22.6 43.2c0 1.2.7 1.9.7 1.9 1.3 1.9 2.6 1 2.6 1l3.6-4.8.9-.4 1.3.7.3-.2 1.8-2.4c1.6.1 7.6 4.2 7.6 4.2 1.8 1.1 2.4 2.7 2.4 2.7.9 2.5 2.6 3.9 2.6 3.9l3.4 3.2-24.6 23.6s-3.1 2.1-1.7 4c0 0 1.8 2.8 5.8-.1l9.3-8.5 15.6-14.8 16.2 15.4 9.3 8.5c4 2.9 5.8.1 5.8.1 1.3-1.9-1.7-4-1.7-4L58.6 53.1l4-3.8s3.6-2.2 4.5-4.8c.2.1-1.1-.7.7-1.8"/></g><g id="Group" transform="translate(41 10)"><path id="Fill-1_1_" class="st1" d="M108.7 51.3h3.6c1.6 0 3.1-.2 4.5-.5s2.6-.9 3.6-1.6c1-.8 1.8-1.8 2.4-3 .6-1.2.9-2.7.9-4.5 0-1.6-.3-2.9-.9-4-.6-1.1-1.4-2.1-2.3-2.8-1-.7-2.1-1.3-3.4-1.7-1.3-.4-2.7-.6-4.2-.6h-4.1v18.7h-.1zm-7-25.2h10.4c2.5 0 4.9.3 7.2.9s4.2 1.5 5.9 2.7c1.7 1.3 3 2.9 4 4.9s1.5 4.5 1.5 7.4c0 2.6-.5 4.8-1.4 6.8-1 2-2.3 3.6-3.9 4.9-1.6 1.3-3.5 2.3-5.6 3s-4.4 1-6.7 1h-11.3l-.1-31.6z"/><path id="Fill-2_1_" class="st1" d="M140.6 41.9c0 1.5.2 2.9.7 4.1s1.1 2.3 2 3.2c.9.9 1.9 1.6 3.1 2.1 1.2.5 2.5.8 4 .8s2.8-.3 4-.8 2.2-1.2 3.1-2.1c.9-.9 1.5-2 2-3.2s.7-2.6.7-4.1-.2-2.8-.7-4.1c-.5-1.3-1.1-2.3-2-3.2-.9-.9-1.9-1.6-3.1-2.1-1.2-.5-2.5-.8-4-.8s-2.8.3-4 .8-2.2 1.2-3.1 2.1c-.9.9-1.5 2-2 3.2-.5 1.3-.7 2.7-.7 4.1m-7.2 0c0-2.5.4-4.8 1.3-6.9.8-2.1 2-3.8 3.5-5.3 1.5-1.4 3.3-2.6 5.4-3.3 2.1-.8 4.3-1.2 6.8-1.2s4.7.4 6.8 1.2c2.1.8 3.9 1.9 5.4 3.3s2.7 3.2 3.5 5.3c.8 2.1 1.3 4.4 1.3 6.9s-.4 4.8-1.3 6.9c-.8 2.1-2 3.8-3.5 5.3-1.5 1.4-3.3 2.6-5.4 3.3-2.1.8-4.3 1.2-6.8 1.2s-4.7-.4-6.8-1.2c-2.1-.8-3.9-1.9-5.4-3.3s-2.7-3.2-3.5-5.3c-.9-2.1-1.3-4.3-1.3-6.9"/><path id="Fill-3" class="st1" d="M171.4 26.1h6.9v25.2h12.9v6.5h-19.8V26.1"/><path id="Fill-4" class="st1" d="M193.8 26.1h6.9v25.2h12.9v6.5h-19.8V26.1"/><path id="Fill-5" class="st1" d="M231.1 35.3l-3.8 9.8h7.7l-3.9-9.8zm-2.6-9.2h5.7l13.7 31.7h-7.8l-2.7-6.7h-12.2l-2.6 6.7h-7.7l13.6-31.7z"/><path id="Fill-6" class="st1" d="M257.2 39.2h4.1c.6 0 1.3 0 2-.1.7 0 1.3-.2 1.9-.4.6-.2 1-.6 1.4-1.1s.6-1.1.6-2c0-.8-.2-1.4-.5-1.9s-.7-.8-1.2-1.1c-.5-.3-1.1-.4-1.7-.5-.7-.1-1.3-.1-1.9-.1h-4.5v7.2h-.2zm-7-13.1h12.2c1.6 0 3.1.2 4.6.5 1.4.3 2.7.8 3.8 1.6 1.1.7 1.9 1.7 2.6 3 .6 1.2 1 2.8 1 4.6 0 2.2-.6 4.1-1.7 5.7-1.2 1.6-2.8 2.6-5.1 3l8 13.4h-8.3l-6.6-12.7h-3.4v12.7h-6.9V26.1h-.2z"/><path id="Fill-7" class="st1" d="M307 33.8c-.6-.7-1.3-1.2-2.3-1.6-1-.3-1.9-.5-2.7-.5-.5 0-1 .1-1.6.2-.5.1-1 .3-1.5.6s-.9.6-1.2 1c-.3.4-.4.9-.4 1.5 0 1 .4 1.7 1.1 2.2s1.6.9 2.7 1.3 2.2.7 3.5 1.1 2.4.9 3.5 1.5c1.1.7 2 1.5 2.7 2.6s1.1 2.6 1.1 4.4-.3 3.3-1 4.6c-.7 1.3-1.5 2.4-2.6 3.3s-2.4 1.5-3.9 1.9-3 .6-4.6.6c-2 0-3.9-.3-5.7-.9-1.8-.6-3.4-1.6-4.9-3l4.9-5.5c.7 1 1.6 1.7 2.7 2.2s2.2.8 3.4.8c.6 0 1.1-.1 1.7-.2s1.1-.3 1.6-.6.8-.6 1.1-1c.3-.4.4-.9.4-1.5 0-1-.4-1.7-1.1-2.3-.7-.6-1.6-1-2.7-1.4s-2.3-.8-3.6-1.2c-1.3-.4-2.5-.9-3.6-1.6s-2-1.5-2.7-2.6-1.1-2.5-1.1-4.3c0-1.7.3-3.2 1-4.5s1.6-2.4 2.7-3.2c1.1-.9 2.4-1.5 3.9-1.9s2.9-.6 4.5-.6c1.8 0 3.5.3 5.2.8s3.2 1.4 4.5 2.6l-5 5.2"/><path id="Fill-8" class="st1" d="M316.5 26.1h7v11.8h13.4V26.1h7v31.7h-7V44.1h-13.4v13.7h-7V26.1"/><path id="Fill-9" class="st1" d="M362.5 35.3l-3.8 9.8h7.7l-3.9-9.8zm-2.7-9.2h5.7l13.7 31.7h-7.8l-2.7-6.7h-12.2l-2.6 6.7h-7.7l13.6-31.7z"/><path id="Fill-10" class="st1" d="M373.8 26.1h7.9l7.8 20.7h.1l7.9-20.7h7.5l-13 31.7h-5.6l-12.6-31.7"/><path id="Fill-11" class="st1" d="M407.6 26.1H429v6.4h-14.4v5.9h13.6v6.5h-13.6v6.4h15.2v6.5h-22.2V26.1"/><path id="Fill-12" class="st1" d="M468.4 34.3c-.7-.8-1.5-1.5-2.5-1.9s-2.1-.7-3.4-.7-2.5.3-3.6.8-2.1 1.2-2.9 2.1-1.5 2-1.9 3.2c-.5 1.3-.7 2.6-.7 4.1s.2 2.9.7 4.1 1.1 2.3 1.9 3.2c.8.9 1.7 1.6 2.8 2.1 1.1.5 2.2.8 3.5.8 1.4 0 2.7-.3 3.8-.9 1.1-.6 2-1.4 2.7-2.5l5.8 4.3c-1.3 1.9-3 3.3-5.1 4.2-2 .9-4.2 1.3-6.3 1.3-2.5 0-4.7-.4-6.8-1.2-2.1-.8-3.9-1.9-5.4-3.3s-2.7-3.2-3.5-5.3c-.8-2.1-1.3-4.4-1.3-6.9s.4-4.8 1.3-6.9c.8-2.1 2-3.8 3.5-5.3 1.5-1.4 3.3-2.6 5.4-3.3 2.1-.8 4.3-1.2 6.8-1.2.9 0 1.8.1 2.8.2 1 .2 1.9.4 2.8.8s1.8.8 2.7 1.4c.9.6 1.6 1.3 2.3 2.2l-5.4 4.6"/><path id="Fill-13" class="st1" d="M478.1 26.1h6.9v25.2h12.9v6.5h-19.8V26.1"/><path id="Fill-14" class="st1" d="M527.9 45.5c0 1.9-.3 3.6-.8 5.2-.6 1.6-1.4 3-2.5 4.1-1.1 1.2-2.5 2.1-4.2 2.7-1.7.7-3.6 1-5.7 1-2.2 0-4.1-.3-5.8-1s-3-1.6-4.2-2.7c-1.1-1.2-2-2.5-2.5-4.1-.6-1.6-.8-3.3-.8-5.2V26h6.9v19.2c0 1 .2 1.9.5 2.7.3.8.7 1.6 1.3 2.2s1.2 1.1 2 1.4 1.6.5 2.6.5 1.8-.2 2.5-.5c.8-.3 1.4-.8 2-1.4s1-1.3 1.3-2.2c.3-.8.5-1.7.5-2.7V26h6.9v19.5"/><path id="Fill-15" class="st1" d="M541.2 51.8h6.2c.5 0 1.1-.1 1.6-.2s1-.3 1.5-.6c.4-.3.8-.7 1.1-1.2s.4-1.1.4-1.7c0-.7-.2-1.3-.6-1.8-.4-.5-.8-.8-1.4-1.1-.6-.2-1.2-.4-1.8-.5-.7-.1-1.3-.1-1.8-.1h-5.2v7.2zm0-13.1h5c.5 0 1.1-.1 1.6-.2s1-.3 1.4-.6c.4-.3.8-.6 1-1.1.3-.4.4-1 .4-1.6 0-.7-.1-1.2-.4-1.6-.3-.4-.6-.8-1.1-1-.4-.2-.9-.4-1.5-.5s-1.1-.2-1.6-.2h-4.7v6.8h-.1zm-7-12.6H546c1.4 0 2.7.1 4.1.3 1.4.2 2.6.6 3.7 1.2s2 1.4 2.7 2.4 1 2.4 1 4.2c0 1.8-.5 3.3-1.5 4.5s-2.3 2-3.9 2.5v.1c1 .2 2 .4 2.8.9.8.4 1.6 1 2.2 1.7.6.7 1.1 1.5 1.4 2.3s.5 1.9.5 2.9c0 1.7-.4 3.1-1.1 4.2-.7 1.1-1.6 2-2.8 2.7-1.1.7-2.4 1.2-3.8 1.5-1.4.3-2.8.4-4.2.4h-12.9V26.1z"/></g></g></g></g></g></svg>