<svg xmlns="http://www.w3.org/2000/svg" viewBox="0 0 368 84"><path d="M42.2 50.7h23.4v12.2c-5.4 6.2-13 10.5-23.3 10.5-17.7 0-30.4-13.2-30.4-31.4 0-18.4 12.8-31.4 30.4-31.4 10.8 0 19.9 5.4 24.5 12.2l8.5-7.6C67.7 5.8 56.7 0 42.3 0 18.6 0 0 17.8 0 42s18.6 42 42.2 42c15.5 0 27.9-7.7 35.1-18.2V40.2H42.2v10.5zM148.2 0C124.6 0 106 17.8 106 42s18.6 42 42.2 42c23.7 0 42.2-17.8 42.2-42S171.9 0 148.2 0zm0 73.4c-17.5 0-30.4-13.2-30.4-31.4 0-18.4 12.8-31.4 30.4-31.4 17.5 0 30.5 13 30.5 31.4 0 18.2-12.9 31.4-30.5 31.4zm95-71.7l-34.9 80.5h11.8l9.8-22.3h38.2l9.8 22.3h11.8L254.9 1.7h-11.7zm-8.7 47.7L249 16.1h.1l14.4 33.3h-29zm65.6-47.7v10.6h27.6v70h11.8v-70H367V1.7z"/></svg>